<svg xmlns="http://www.w3.org/2000/svg" viewBox="0 0 200 200" width="200" height="200">
  <defs>
    <linearGradient id="bgGrad" x1="0%" y1="0%" x2="0%" y2="100%">
      <stop offset="0%" style="stop-color:#4A90E2;stop-opacity:1" />
      <stop offset="100%" style="stop-color:#1E3A8A;stop-opacity:1" />
    </linearGradient>
  </defs>
  
  <!-- Background -->
  <rect width="200" height="200" fill="url(#bgGrad)"/>
  
  <!-- Decorative border -->
  <rect x="10" y="10" width="180" height="180" rx="10" fill="none" stroke="#FFD700" stroke-width="3"/>
  <rect x="15" y="15" width="170" height="170" rx="8" fill="none" stroke="#FFA500" stroke-width="2"/>
  
  <!-- Om symbol simplified -->
  <circle cx="100" cy="60" r="30" fill="none" stroke="#FFD700" stroke-width="4"/>
  <path d="M 100 40 Q 90 50, 100 60 Q 110 50, 100 40" fill="#FFD700"/>
  <text x="100" y="68" font-family="serif" font-size="32" fill="#FFD700" text-anchor="middle" font-weight="bold">ॐ</text>
  
  <!-- Temple silhouette -->
  <path d="M 100 90 L 70 110 L 70 140 L 130 140 L 130 110 Z" fill="#FFE4B5" opacity="0.7"/>
  <path d="M 65 110 L 100 85 L 135 110" fill="none" stroke="#FFD700" stroke-width="2"/>
  
  <!-- Text -->
  <text x="100" y="165" font-family="Arial, sans-serif" font-size="14" fill="#FFD700" text-anchor="middle" font-weight="bold">Khatu Shyam</text>
  <text x="100" y="182" font-family="Arial, sans-serif" font-size="11" fill="#FFF8DC" text-anchor="middle">Baba</text>
  
  <!-- Decorative elements -->
  <circle cx="40" cy="40" r="5" fill="#FFD700" opacity="0.6"/>
  <circle cx="160" cy="40" r="5" fill="#FFD700" opacity="0.6"/>
  <circle cx="40" cy="160" r="5" fill="#FFD700" opacity="0.6"/>
  <circle cx="160" cy="160" r="5" fill="#FFD700" opacity="0.6"/>
</svg>