<svg xmlns="http://www.w3.org/2000/svg" viewBox="0 0 400 400" width="400" height="400">
  <defs>
    <radialGradient id="ladduMainGrad" cx="45%" cy="35%">
      <stop offset="0%" style="stop-color:#FFE4A0;stop-opacity:1" />
      <stop offset="30%" style="stop-color:#FFD580;stop-opacity:1" />
      <stop offset="60%" style="stop-color:#FFA500;stop-opacity:1" />
      <stop offset="85%" style="stop-color:#E89C00;stop-opacity:1" />
      <stop offset="100%" style="stop-color:#CC8800;stop-opacity:1" />
    </radialGradient>
    
    <radialGradient id="ladduHighlight" cx="40%" cy="30%">
      <stop offset="0%" style="stop-color:#FFFAEE;stop-opacity:0.9" />
      <stop offset="50%" style="stop-color:#FFF4D5;stop-opacity:0.5" />
      <stop offset="100%" style="stop-color:#FFA500;stop-opacity:0" />
    </radialGradient>
    
    <filter id="ladduShadow" x="-50%" y="-50%" width="200%" height="200%">
      <feGaussianBlur in="SourceAlpha" stdDeviation="8"/>
      <feOffset dx="4" dy="12" result="offsetblur"/>
      <feComponentTransfer>
        <feFuncA type="linear" slope="0.5"/>
      </feComponentTransfer>
      <feMerge>
        <feMergeNode/>
        <feMergeNode in="SourceGraphic"/>
      </feMerge>
    </filter>
    
    <filter id="innerShadow">
      <feGaussianBlur in="SourceAlpha" stdDeviation="3"/>
      <feOffset dx="0" dy="2" result="offsetblur"/>
      <feFlood flood-color="#996600" flood-opacity="0.3"/>
      <feComposite in2="offsetblur" operator="in"/>
      <feMerge>
        <feMergeNode/>
        <feMergeNode in="SourceGraphic"/>
      </feMerge>
    </filter>
  </defs>
  
  <!-- Shadow beneath laddu -->
  <ellipse cx="200" cy="340" rx="110" ry="25" fill="#000000" opacity="0.15"/>
  
  <!-- Main Laddu sphere with realistic shading -->
  <circle cx="200" cy="200" r="135" fill="url(#ladduMainGrad)" filter="url(#ladduShadow)"/>
  
  <!-- Grainy texture overlay for besan -->
  <circle cx="200" cy="200" r="135" fill="none" stroke="#E8A030" stroke-width="0.5" opacity="0.3" stroke-dasharray="2,2"/>
  
  <!-- Top highlight for 3D effect -->
  <ellipse cx="160" cy="150" rx="65" ry="45" fill="url(#ladduHighlight)" opacity="0.6"/>
  
  <!-- Realistic besan grain texture with varied sizes -->
  <g opacity="0.7">
    <circle cx="150" cy="160" r="3.5" fill="#F5DEB3"/>
    <circle cx="170" cy="155" r="2.8" fill="#FAEBD7"/>
    <circle cx="190" cy="150" r="3.2" fill="#F5DEB3"/>
    <circle cx="210" cy="158" r="2.5" fill="#FAEBD7"/>
    <circle cx="230" cy="165" r="3.8" fill="#F5DEB3"/>
    <circle cx="140" cy="180" r="2.9" fill="#FAEBD7"/>
    <circle cx="165" cy="175" r="3.5" fill="#F5DEB3"/>
    <circle cx="185" cy="172" r="2.7" fill="#FAEBD7"/>
    <circle cx="205" cy="178" r="3.3" fill="#F5DEB3"/>
    <circle cx="225" cy="183" r="2.6" fill="#FAEBD7"/>
    <circle cx="245" cy="175" r="3.1" fill="#F5DEB3"/>
    <circle cx="135" cy="200" r="3.4" fill="#FAEBD7"/>
    <circle cx="155" cy="195" r="2.8" fill="#F5DEB3"/>
    <circle cx="175" cy="198" r="3.6" fill="#FAEBD7"/>
    <circle cx="195" cy="193" r="2.5" fill="#F5DEB3"/>
    <circle cx="215" cy="200" r="3.2" fill="#FAEBD7"/>
    <circle cx="235" cy="205" r="2.9" fill="#F5DEB3"/>
    <circle cx="255" cy="198" r="3.3" fill="#FAEBD7"/>
    <circle cx="145" cy="220" r="3.0" fill="#F5DEB3"/>
    <circle cx="168" cy="218" r="2.7" fill="#FAEBD7"/>
    <circle cx="188" cy="215" r="3.5" fill="#F5DEB3"/>
    <circle cx="208" cy="223" r="2.6" fill="#FAEBD7"/>
    <circle cx="228" cy="225" r="3.1" fill="#F5DEB3"/>
    <circle cx="248" cy="220" r="2.8" fill="#FAEBD7"/>
    <circle cx="158" cy="240" r="3.3" fill="#F5DEB3"/>
    <circle cx="178" cy="238" r="2.9" fill="#FAEBD7"/>
    <circle cx="198" cy="235" r="3.4" fill="#F5DEB3"/>
    <circle cx="218" cy="242" r="2.7" fill="#FAEBD7"/>
    <circle cx="238" cy="245" r="3.2" fill="#F5DEB3"/>
  </g>
  
  <!-- Cashew and almond pieces for premium laddu -->
  <g filter="url(#innerShadow)">
    <!-- Cashew pieces -->
    <path d="M 175 185 Q 180 182, 185 185 Q 183 190, 180 192 Q 177 190, 175 185" fill="#F4E4C1" stroke="#D4C4A1" stroke-width="0.5"/>
    <path d="M 210 195 Q 216 192, 222 195 Q 220 201, 216 203 Q 212 201, 210 195" fill="#F4E4C1" stroke="#D4C4A1" stroke-width="0.5"/>
    <path d="M 165 210 Q 170 207, 175 210 Q 173 215, 170 217 Q 167 215, 165 210" fill="#F4E4C1" stroke="#D4C4A1" stroke-width="0.5"/>
    <path d="M 225 215 Q 230 212, 235 215 Q 233 220, 230 222 Q 227 220, 225 215" fill="#F4E4C1" stroke="#D4C4A1" stroke-width="0.5"/>
    
    <!-- Almond slivers -->
    <ellipse cx="190" cy="205" rx="6" ry="3" fill="#E8D4B8" stroke="#C8B498" stroke-width="0.5" transform="rotate(-25 190 205)"/>
    <ellipse cx="215" cy="180" rx="6" ry="3" fill="#E8D4B8" stroke="#C8B498" stroke-width="0.5" transform="rotate(35 215 180)"/>
    <ellipse cx="183" cy="225" rx="5" ry="2.5" fill="#E8D4B8" stroke="#C8B498" stroke-width="0.5" transform="rotate(15 183 225)"/>
    
    <!-- Raisins -->
    <ellipse cx="200" cy="215" rx="3.5" ry="5" fill="#5C4033" opacity="0.8" transform="rotate(-10 200 215)"/>
    <ellipse cx="178" cy="195" rx="3" ry="4.5" fill="#5C4033" opacity="0.8" transform="rotate(20 178 195)"/>
  </g>
  
  <!-- Bottom darker shading for sphere depth -->
  <path d="M 80 240 Q 200 310, 320 240 Q 320 280, 200 330 Q 80 280, 80 240" fill="#CC8800" opacity="0.3"/>
  
  <!-- Surface imperfections for realism -->
  <g opacity="0.2">
    <circle cx="140" cy="190" r="1.5" fill="#996600"/>
    <circle cx="260" cy="210" r="1.2" fill="#996600"/>
    <circle cx="150" cy="240" r="1.8" fill="#996600"/>
    <circle cx="245" cy="185" r="1.3" fill="#996600"/>
  </g>
  
  <!-- Ghee sheen effect -->
  <ellipse cx="170" cy="160" rx="50" ry="30" fill="#FFFFFF" opacity="0.25" transform="rotate(-20 170 160)"/>
  <ellipse cx="210" cy="175" rx="35" ry="20" fill="#FFFFFF" opacity="0.15" transform="rotate(15 210 175)"/>
</svg>